<?xml version="1.0" encoding="UTF-8" standalone="no" ?>
<!DOCTYPE svg PUBLIC "-//W3C//DTD SVG 1.1//EN" "http://www.w3.org/Graphics/SVG/1.1/DTD/svg11.dtd">
<svg xmlns="http://www.w3.org/2000/svg" xmlns:xlink="http://www.w3.org/1999/xlink" version="1.1" width="1080" height="1080" viewBox="0 0 1080 1080" xml:space="preserve">
<desc>Created with Fabric.js 5.2.4</desc>
<defs>
</defs>
<g transform="matrix(1 0 0 1 540 540)" id="962ea96c-6b6d-495d-bd41-538721e4622d"  >
</g>
<g transform="matrix(1 0 0 1 540 540)" id="9adb8e46-73f7-46f8-bcef-dd1e067586af"  >
<rect style="stroke: none; stroke-width: 1; stroke-dasharray: none; stroke-linecap: butt; stroke-dashoffset: 0; stroke-linejoin: miter; stroke-miterlimit: 4; fill: rgb(255,255,255); fill-rule: nonzero; opacity: 1; visibility: hidden;" vector-effect="non-scaling-stroke"  x="-540" y="-540" rx="0" ry="0" width="1080" height="1080" />
</g>
<g transform="matrix(1 0 0 1 540 540)"  >
<rect style="stroke: none; stroke-width: 1; stroke-dasharray: none; stroke-linecap: butt; stroke-dashoffset: 0; stroke-linejoin: miter; stroke-miterlimit: 4; fill: rgb(255,255,255); fill-rule: nonzero; opacity: 1; visibility: hidden;" vector-effect="non-scaling-stroke"  x="-540" y="-540" rx="0" ry="0" width="1080" height="1080" />
</g>
<g transform="matrix(1 0 0 1 540 540)"  >
<rect style="stroke: none; stroke-width: 1; stroke-dasharray: none; stroke-linecap: butt; stroke-dashoffset: 0; stroke-linejoin: miter; stroke-miterlimit: 4; fill: rgb(255,255,255); fill-rule: nonzero; opacity: 1; visibility: hidden;" vector-effect="non-scaling-stroke"  x="-540" y="-540" rx="0" ry="0" width="1080" height="1080" />
</g>
<g transform="matrix(1 0 0 1 463.59 842.35)"  >
<rect style="stroke: rgb(255,255,255); stroke-width: 1; stroke-dasharray: none; stroke-linecap: butt; stroke-dashoffset: 0; stroke-linejoin: miter; stroke-miterlimit: 4; fill: rgb(63,61,86); fill-rule: nonzero; opacity: 1;" vector-effect="non-scaling-stroke"  x="-278.055" y="-1.18" rx="0" ry="0" width="556.11" height="2.36" />
</g>
<g transform="matrix(1 0 0 1 491.71 537.48)"  >
<path style="stroke: rgb(255,255,255); stroke-width: 1; stroke-dasharray: none; stroke-linecap: butt; stroke-dashoffset: 0; stroke-linejoin: miter; stroke-miterlimit: 4; fill: rgb(255,185,185); fill-rule: nonzero; opacity: 1;" vector-effect="non-scaling-stroke"  transform=" translate(-551.71, -447.48)" d="M 540.45658 426.2614 C 540.45658 426.2614 528.65458 479.37039999999996 552.25858 469.92882 C 575.8625800000001 460.48724 561.70019 423.90099999999995 561.70019 423.90099999999995 Z" stroke-linecap="round" />
</g>
<g transform="matrix(1 0 0 1 702.1 555.03)"  >
<path style="stroke: none; stroke-width: 1; stroke-dasharray: none; stroke-linecap: butt; stroke-dashoffset: 0; stroke-linejoin: miter; stroke-miterlimit: 4; fill: rgb(255,185,185); fill-rule: nonzero; opacity: 1;" vector-effect="non-scaling-stroke"  transform=" translate(-762.12, -465.05)" d="M 761.15409 443.96441 C 761.15409 443.96441 789.47891 478.19022 771.7759 485.27141 C 754.0728899999999 492.3526 744.63128 453.40599 746.99168 449.86541 C 749.35208 446.32483 761.15409 443.96441 761.15409 443.96441 Z" stroke-linecap="round" />
</g>
<g transform="matrix(1 0 0 1 633.89 256.62)"  >
<circle style="stroke: none; stroke-width: 1; stroke-dasharray: none; stroke-linecap: butt; stroke-dashoffset: 0; stroke-linejoin: miter; stroke-miterlimit: 4; fill: rgb(255,185,185); fill-rule: nonzero; opacity: 1;" vector-effect="non-scaling-stroke"  cx="0" cy="0" r="35.40602" />
</g>
<g transform="matrix(1 0 0 1 626.21 295.56)"  >
<polygon style="stroke: none; stroke-width: 1; stroke-dasharray: none; stroke-linecap: butt; stroke-dashoffset: 0; stroke-linejoin: miter; stroke-miterlimit: 4; fill: rgb(255,185,185); fill-rule: nonzero; opacity: 1;" vector-effect="non-scaling-stroke"  points="-18.88,-25.37 -23.6,11.21 15.34,25.37 23.6,-15.93 -18.88,-25.37 " />
</g>
<g transform="matrix(1 0 0 1 601.02 412.89)"  >
<path style="stroke: rgb(255,255,255); stroke-width: 1; stroke-dasharray: none; stroke-linecap: butt; stroke-dashoffset: 0; stroke-linejoin: miter; stroke-miterlimit: 4; fill: rgb(207,204,224); fill-rule: nonzero; opacity: 1;" vector-effect="non-scaling-stroke"  transform=" translate(-661.02, -322.89)" d="M 689.16185 216.18569 C 689.16185 216.18569 669.15464 206.30857 664.9958499999999 198.26492 L 656.1162499999999 206.74408 C 656.1162499999999 206.74408 592.3854099999999 200.84308 582.94381 232.7085 C 573.5022100000001 264.57392 581.76361 380.23357 581.76361 380.23357 C 581.76361 380.23357 568.7814 432.1624 572.322 433.34256999999997 C 575.8626 434.52273999999994 619.53 455.76637999999997 680.9004600000001 443.96437999999995 C 680.9004600000001 443.96437999999995 708.0450700000001 439.24357 712.76588 442.78416999999996 C 717.48669 446.32476999999994 710.40548 386.13455 710.40548 386.13455 C 710.40548 386.13455 757.61348 279.91649 749.3521000000001 266.93428 C 741.0907200000001 253.95207 704.5044700000001 226.80746 704.5044700000001 226.80746 L 706.8648700000001 213.82526 C 706.8648700000001 213.82526 690.34205 220.90649 689.16185 216.18569 Z" stroke-linecap="round" />
</g>
<g transform="matrix(1 0 0 1 509.28 418.32)"  >
<path style="stroke: rgb(255,255,255); stroke-width: 1; stroke-dasharray: none; stroke-linecap: butt; stroke-dashoffset: 0; stroke-linejoin: miter; stroke-miterlimit: 4; fill: rgb(207,204,224); fill-rule: nonzero; opacity: 1;" vector-effect="non-scaling-stroke"  transform=" translate(-569.28, -328.3)" d="M 592.3854 224.44709 C 592.3854 224.44709 571.14179 235.0689 567.60119 251.59171 C 564.0605899999999 268.11451999999997 531.015 405.01779 534.55557 413.27919 C 538.09614 421.54059000000007 536.916 432.1624 536.916 432.1624 L 567.60121 428.6218 C 567.60121 428.6218 561.7002100000001 420.36039 565.24081 416.8198 C 568.7814099999999 413.27921 572.32201 401.47719 569.9616100000001 396.75639 C 567.6012100000002 392.03559 565.24081 400.29699 578.22302 384.95439 C 591.20523 369.61179 620.71022 229.1679 592.3854 224.44709 Z" stroke-linecap="round" />
</g>
<g transform="matrix(1 0 0 1 676.44 450.17)"  >
<path style="stroke: rgb(255,255,255); stroke-width: 1; stroke-dasharray: none; stroke-linecap: butt; stroke-dashoffset: 0; stroke-linejoin: miter; stroke-miterlimit: 4; fill: rgb(207,204,224); fill-rule: nonzero; opacity: 1;" vector-effect="non-scaling-stroke"  transform=" translate(-736.46, -360.17)" d="M 742.27088 264.57391 C 742.27088 264.57391 752.30259 265.16401 754.66299 281.68682 C 757.0233900000001 298.20963 761.15409 400.29698 761.15409 400.29698 C 761.15409 400.29698 776.4967 433.3426 770.5957 438.0634 C 764.6946999999999 442.7842 768.23529 449.8654 768.23529 449.8654 L 746.99168 455.76640000000003 L 700.96386 383.77416000000005 Z" stroke-linecap="round" />
</g>
<g transform="matrix(1 0 0 1 581.17 669.7)"  >
<path style="stroke: rgb(255,255,255); stroke-width: 1; stroke-dasharray: none; stroke-linecap: butt; stroke-dashoffset: 0; stroke-linejoin: miter; stroke-miterlimit: 4; fill: rgb(47,46,65); fill-rule: nonzero; opacity: 1;" vector-effect="non-scaling-stroke"  transform=" translate(-641.17, -579.69)" d="M 575.8626 428.6218 C 575.8626 428.6218 568.78139 429.802 568.78139 455.76641 C 568.78139 481.73082 555.79919 561.98447 564.0605899999999 574.96667 C 572.3219899999999 587.94887 573.5021899999999 704.78874 573.5021899999999 704.78874 C 573.5021899999999 704.78874 595.9260099999999 714.23034 614.80919 683.54513 L 617.16959 667.0223199999999 L 621.89039 586.7686799999999 L 640.7736 486.4516799999999 L 666.738 597.39048 C 666.738 597.39048 663.1974 730.75315 676.17961 730.75315 C 689.16182 730.75315 713.9460300000001 720.13135 713.9460300000001 720.13135 C 713.9460300000001 720.13135 719.84703 708.32935 717.4866300000001 702.42835 C 715.1262300000002 696.5273500000001 712.76583 697.70755 715.1262300000001 692.98674 C 717.4866300000001 688.2659300000001 721.02723 565.5250800000001 721.02723 565.5250800000001 C 721.02723 565.5250800000001 716.30643 439.2436100000001 710.40543 435.7030100000001 C 704.5044300000001 432.16241000000014 575.8626 428.6218 575.8626 428.6218 Z" stroke-linecap="round" />
</g>
<g transform="matrix(1 0 0 1 526.17 807.19)"  >
<path style="stroke: rgb(255,255,255); stroke-width: 1; stroke-dasharray: none; stroke-linecap: butt; stroke-dashoffset: 0; stroke-linejoin: miter; stroke-miterlimit: 4; fill: rgb(47,46,65); fill-rule: nonzero; opacity: 1;" vector-effect="non-scaling-stroke"  transform=" translate(-586.15, -717.21)" d="M 575.8626 700.06794 L 556.9793900000001 720.13135 C 556.9793900000001 720.13135 522.7535700000001 751.99676 552.25858 753.17696 C 581.76359 754.35716 598.28641 734.29375 598.28641 731.93335 C 598.28641 729.57295 599.4666100000001 721.31155 607.72801 721.31155 C 615.98941 721.31155 636.0528300000001 701.24814 631.3320100000001 692.98673 C 626.6111900000001 684.7253199999999 612.4488000000001 681.18473 612.4488000000001 681.18473 Z" stroke-linecap="round" />
</g>
<g transform="matrix(1 0 0 1 641.44 841.48)"  >
<path style="stroke: rgb(255,255,255); stroke-width: 1; stroke-dasharray: none; stroke-linecap: butt; stroke-dashoffset: 0; stroke-linejoin: miter; stroke-miterlimit: 4; fill: rgb(47,46,65); fill-rule: nonzero; opacity: 1;" vector-effect="non-scaling-stroke"  transform=" translate(-701.44, -751.47)" d="M 677.35985 726.03235 C 677.35985 726.03235 663.19744 754.35717 671.4588500000001 760.25817 C 679.7202600000002 766.1591699999999 682.0806500000001 768.5195699999999 682.0806500000001 768.5195699999999 C 682.0806500000001 768.5195699999999 689.1618500000001 767.3393699999999 687.9816500000001 777.9611799999999 C 686.80145 788.5829899999999 730.46888 794.48399 732.82928 786.2225799999999 C 735.1896800000001 777.9611699999998 734.00948 761.4383699999998 729.28867 756.7175799999999 C 724.56786 751.9967899999999 710.40547 718.9511599999998 710.40547 718.9511599999998 C 710.40547 718.9511599999998 695.06286 701.24814 677.35985 726.03235 Z" stroke-linecap="round" />
</g>
<g transform="matrix(1 0 0 1 633.91 234.83)"  >
<path style="stroke: rgb(255,255,255); stroke-width: 1; stroke-dasharray: none; stroke-linecap: butt; stroke-dashoffset: 0; stroke-linejoin: miter; stroke-miterlimit: 4; fill: rgb(47,46,65); fill-rule: nonzero; opacity: 1;" vector-effect="non-scaling-stroke"  transform=" translate(-693.91, -144.81)" d="M 729.61563 138.18723 L 736.2854 137.23977 C 736.2854 137.23977 727.00032 120.14999999999999 709.02924 117.04682 L 715.3375699999999 112.78911 C 715.3375699999999 112.78911 704.37569 104.95518999999999 690.20895 115.02471 C 682.76177 120.31801 674.11506 126.56622 667.75465 134.43071 L 661.24837 132.84063 L 662.50258 139.48345 L 651.53714 143.13988 L 661.55472 144.45 C 660.173223779121 147.58220112934643 659.2670700070512 150.90309544876308 658.86622 154.30287999999996 C 658.4778064437883 157.706775586214 659.4270521748743 161.12843103683724 661.51362 163.84571 L 661.51362 163.84571 C 661.51362 163.84571 672.85962 150.09133 673.45407 147.6591 L 671.96807 153.73964999999998 C 671.96807 153.73964999999998 679.38084 149.75194 680.27246 146.10365 L 682.54603 151.16989999999998 L 685.83757 144.88619999999997 L 704.6381 156.569 L 702.66174 150.28665999999998 L 714.9189 155.21532 L 711.58267 147.31184 C 711.58267 147.31184 724.01067 158.72599 722.9284700000001 165.54962999999998 C 721.84608 172.37312999999997 724.5003600000001 179.73818999999997 724.5003600000001 179.73818999999997 C 724.5003600000001 179.73818999999997 743.40339 151.22239 729.61563 138.18723 Z" stroke-linecap="round" />
</g>
<g transform="matrix(1 0 0 1 901.96 630.48)"  >
<rect style="stroke: rgb(255,255,255); stroke-width: 1; stroke-dasharray: none; stroke-linecap: butt; stroke-dashoffset: 0; stroke-linejoin: miter; stroke-miterlimit: 4; fill: rgb(63,61,86); fill-rule: nonzero; opacity: 1;" vector-effect="non-scaling-stroke"  x="-94.5" y="-1.13" rx="0" ry="0" width="189" height="2.26" />
</g>
<g transform="matrix(1 0 0 1 267.22 826.38)"  >
<rect style="stroke: none; stroke-width: 1; stroke-dasharray: none; stroke-linecap: butt; stroke-dashoffset: 0; stroke-linejoin: miter; stroke-miterlimit: 4; fill: rgb(207,204,224); fill-rule: nonzero; opacity: 1;" vector-effect="non-scaling-stroke"  x="-22.78" y="-22.78" rx="0" ry="0" width="45.56" height="45.56" />
</g>
<g transform="matrix(1 0 0 1 260.02 819.18)"  >
<path style="stroke: rgb(255,255,255); stroke-width: 1; stroke-dasharray: none; stroke-linecap: butt; stroke-dashoffset: 0; stroke-linejoin: miter; stroke-miterlimit: 4; fill: rgb(63,61,86); fill-rule: nonzero; opacity: 1;" vector-effect="non-scaling-stroke"  transform=" translate(-320.02, -729.18)" d="M 343.99959 753.15792 L 296.04376 753.15792 L 296.04376 705.20209 L 343.99959 705.20209 Z M 298.44159 750.76013 L 341.6018 750.76013 L 341.6018 707.59988 L 298.44155 707.59988 Z" stroke-linecap="round" />
</g>
<g transform="matrix(0.93 -0.36 0.36 0.93 330.86 425.04)"  >
<rect style="stroke: none; stroke-width: 1; stroke-dasharray: none; stroke-linecap: butt; stroke-dashoffset: 0; stroke-linejoin: miter; stroke-miterlimit: 4; fill: rgb(242,242,242); fill-rule: nonzero; opacity: 1;" vector-effect="non-scaling-stroke"  x="-15.455" y="-14.92" rx="0" ry="0" width="30.91" height="29.84" />
</g>
<g transform="matrix(1 0 0 1 324.55 422.39)"  >
<path style="stroke: rgb(255,255,255); stroke-width: 1; stroke-dasharray: none; stroke-linecap: butt; stroke-dashoffset: 0; stroke-linejoin: miter; stroke-miterlimit: 4; fill: rgb(63,61,86); fill-rule: nonzero; opacity: 1;" vector-effect="non-scaling-stroke"  transform=" translate(-384.55, -332.38)" d="M 405.39252 341.159 L 375.04364 352.89655 L 363.71251 323.59855 L 394.06139 311.861 Z M 375.99451999999997 350.84477 L 403.30852 340.28096999999997 L 393.11052 313.91276 L 365.79652 324.47656 Z" stroke-linecap="round" />
</g>
<g transform="matrix(0.33 0.95 -0.95 0.33 850.44 735.15)"  >
<rect style="stroke: none; stroke-width: 1; stroke-dasharray: none; stroke-linecap: butt; stroke-dashoffset: 0; stroke-linejoin: miter; stroke-miterlimit: 4; fill: rgb(242,242,242); fill-rule: nonzero; opacity: 1;" vector-effect="non-scaling-stroke"  x="-15.455" y="-14.92" rx="0" ry="0" width="30.91" height="29.84" />
</g>
<g transform="matrix(1 0 0 1 225.95 670.44)"  >
<path style="stroke: rgb(255,255,255); stroke-width: 1; stroke-dasharray: none; stroke-linecap: butt; stroke-dashoffset: 0; stroke-linejoin: miter; stroke-miterlimit: 4; fill: rgb(63,61,86); fill-rule: nonzero; opacity: 1;" vector-effect="non-scaling-stroke"  transform=" translate(-285.95, -580.43)" d="M 318.84517 707.49034 L 320.13217 706.6204399999999 C 315.59572110067006 700.0372376487638 313.1187450554024 692.25402810413 313.01599 684.2598199999999 C 313.05199 672.5658699999999 318.79585 661.7498199999999 324.35083 651.2897699999999 C 325.38189 649.3482399999999 326.40954 647.4127699999999 327.39813 645.4788199999998 C 331.547765202307 637.5922468254785 334.8547530546012 629.29033701609 337.26430999999997 620.7106199999998 C 345.88061999999996 588.6908599999998 337.39741 550.9136199999998 314.57224999999994 519.6560699999998 C 296.4651799999999 494.85980999999975 269.47292999999996 473.1768199999998 232.05403999999993 453.36786999999975 L 231.32748999999993 454.74059999999974 C 268.5332599999999 474.43653999999975 295.3525899999999 495.97049999999973 313.31783999999993 520.5722299999998 C 335.86844999999994 551.4532299999997 344.25951999999995 588.7374999999997 335.7641699999999 620.3071399999998 C 333.3827460871101 628.7817904427521 330.1151743608421 636.9819889807678 326.0155499999999 644.7719799999998 C 325.0299899999999 646.6987299999997 324.0061399999999 648.6266099999998 322.9788699999999 650.5613199999998 C 317.3355299999999 661.1881799999998 311.4999299999999 672.1767999999998 311.4627699999999 684.2552699999998 C 311.56542062911757 692.560938925913 314.13507863767666 700.6485775942228 318.84517 707.49034 Z" stroke-linecap="round" />
</g>
<g transform="matrix(1 0 0 1 853.35 728.91)"  >
<path style="stroke: rgb(255,255,255); stroke-width: 1; stroke-dasharray: none; stroke-linecap: butt; stroke-dashoffset: 0; stroke-linejoin: miter; stroke-miterlimit: 4; fill: rgb(63,61,86); fill-rule: nonzero; opacity: 1;" vector-effect="non-scaling-stroke"  transform=" translate(-913.35, -638.91)" d="M 903.78947 659.40718 L 893.21015 628.6354 L 922.91643 618.4224 L 933.49575 649.1941800000001 Z M 895.22447 629.6633400000001 L 904.74586 657.3579400000001 L 931.48151 648.1662400000001 L 921.96012 620.4716300000001 Z" stroke-linecap="round" />
</g>
<g transform="matrix(1 0 0 1 226.64 611.46)"  >
<path style="stroke: rgb(255,255,255); stroke-width: 1; stroke-dasharray: none; stroke-linecap: butt; stroke-dashoffset: 0; stroke-linejoin: miter; stroke-miterlimit: 4; fill: rgb(250,174,50); fill-rule: nonzero; opacity: 1;" vector-effect="non-scaling-stroke"  transform=" translate(-286.62, -521.46)" d="M 286.8802 509.50788 C 303.78382 509.87048 317.23044 522.12017 317.23044 522.12017 C 317.23044 522.12017 303.27089 533.78197 286.36726999999996 533.41936 C 269.4636499999999 533.05675 256.017 520.80707 256.017 520.80707 C 256.017 520.80707 269.97659 509.14527 286.8802 509.50788 Z" stroke-linecap="round" />
</g>
<g transform="matrix(1 0 0 1 147.03 531.02)"  >
<path style="stroke: rgb(255,255,255); stroke-width: 1; stroke-dasharray: none; stroke-linecap: butt; stroke-dashoffset: 0; stroke-linejoin: miter; stroke-miterlimit: 4; fill: rgb(250,174,50); fill-rule: nonzero; opacity: 1;" vector-effect="non-scaling-stroke"  transform=" translate(-207.03, -441.01)" d="M 201.89746 451.80706 C 217.16915 459.06235999999996 234.68089 454.14243999999997 234.68089 454.14243999999997 C 234.68089 454.14243999999997 227.43233 437.45935999999995 212.16064 430.20405999999997 C 196.88895 422.94876 179.37722 427.86868999999996 179.37722 427.86868999999996 C 179.37722 427.86868999999996 186.62577 444.55177 201.89746 451.80706 Z" stroke-linecap="round" />
</g>
<g transform="matrix(1 0 0 1 144.54 546.51)"  >
<path style="stroke: rgb(255,255,255); stroke-width: 1; stroke-dasharray: none; stroke-linecap: butt; stroke-dashoffset: 0; stroke-linejoin: miter; stroke-miterlimit: 4; fill: rgb(63,61,86); fill-rule: nonzero; opacity: 1;" vector-effect="non-scaling-stroke"  transform=" translate(-204.54, -456.51)" d="M 203.44987 444.59715 C 220.28721000000002 443.0584 235.02487 453.71987 235.02487 453.71987 C 235.02487 453.71987 222.46387 466.87614 205.62651 468.41487 C 188.78915 469.9536 174.05151 459.29215 174.05151 459.29215 C 174.05151 459.29215 186.61253 446.1359 203.44987 444.59715 Z" stroke-linecap="round" />
</g>
<g transform="matrix(1 0 0 1 217.07 538.65)"  >
<path style="stroke: rgb(255,255,255); stroke-width: 1; stroke-dasharray: none; stroke-linecap: butt; stroke-dashoffset: 0; stroke-linejoin: miter; stroke-miterlimit: 4; fill: rgb(63,61,86); fill-rule: nonzero; opacity: 1;" vector-effect="non-scaling-stroke"  transform=" translate(-277.07, -448.65)" d="M 265.17029 447.51226 C 263.55644 464.34256000000005 274.15204 479.12768000000005 274.15204 479.12768000000005 C 274.15204 479.12768000000005 287.36422 466.62548000000004 288.97804 449.7951800000001 C 290.59186000000005 432.9648800000001 279.99629000000004 418.17975000000007 279.99629000000004 418.17975000000007 C 279.99629000000004 418.17975000000007 266.78414 430.682 265.17029 447.51226 Z" stroke-linecap="round" />
</g>
<g transform="matrix(1 0 0 1 294.68 646.99)"  >
<path style="stroke: rgb(255,255,255); stroke-width: 1; stroke-dasharray: none; stroke-linecap: butt; stroke-dashoffset: 0; stroke-linejoin: miter; stroke-miterlimit: 4; fill: rgb(63,61,86); fill-rule: nonzero; opacity: 1;" vector-effect="non-scaling-stroke"  transform=" translate(-354.66, -556.98)" d="M 344.46582 550.732 C 335.63455 565.1497899999999 338.67293 583.084 338.67293 583.084 C 338.67293 583.084 356.02963 577.64234 364.86093 563.22456 C 373.69223 548.80678 370.65382 530.87256 370.65382 530.87256 C 370.65382 530.87256 353.29709 536.31423 344.46582 550.732 Z" stroke-linecap="round" />
</g>
<g transform="matrix(1 0 0 1 98.3 530.67)"  >
<circle style="stroke: rgb(255,255,255); stroke-width: 1; stroke-dasharray: none; stroke-linecap: butt; stroke-dashoffset: 0; stroke-linejoin: miter; stroke-miterlimit: 4; fill: rgb(63,61,86); fill-rule: nonzero; opacity: 1;" vector-effect="non-scaling-stroke"  cx="0" cy="0" r="14.75565" />
</g>
<g transform="matrix(1 0 0 1 823.57 522)"  >
<polygon style="stroke: rgb(255,255,255); stroke-width: 1; stroke-dasharray: none; stroke-linecap: butt; stroke-dashoffset: 0; stroke-linejoin: miter; stroke-miterlimit: 4; fill: rgb(47,46,65); fill-rule: nonzero; opacity: 1;" vector-effect="non-scaling-stroke"  points="78.01,95.82 -111.92,27.6 -78.01,-66.81 40.25,-95.82 111.92,1.4 78.01,95.82 " />
</g>
<g transform="matrix(1 0 0 1 840.2 490.72)"  >
<path style="stroke: rgb(255,255,255); stroke-width: 1; stroke-dasharray: none; stroke-linecap: butt; stroke-dashoffset: 0; stroke-linejoin: miter; stroke-miterlimit: 4; fill: rgb(242,242,242); fill-rule: nonzero; opacity: 1;" vector-effect="non-scaling-stroke"  transform=" translate(-894.27, -412.56)" d="M 938.57461 509.09041 L 796.6355 454.984 C 833.4832 405.62737999999996 849.96088 370.81122 849.97299 316.025 L 991.9121 370.1314 C 958.93688 416.97245 945.147 452.18482 938.57461 509.09041 Z" stroke-linecap="round" />
</g>
<g transform="matrix(0.93 0.36 -0.36 0.93 852.43 455.29)"  >
<rect style="stroke: none; stroke-width: 1; stroke-dasharray: none; stroke-linecap: butt; stroke-dashoffset: 0; stroke-linejoin: miter; stroke-miterlimit: 4; fill: rgb(63,61,86); fill-rule: nonzero; opacity: 1;" vector-effect="non-scaling-stroke"  x="-39.35" y="-1.83" rx="0" ry="0" width="78.7" height="3.66" />
</g>
<g transform="matrix(0.93 0.36 -0.36 0.93 847.22 468.97)"  >
<rect style="stroke: none; stroke-width: 1; stroke-dasharray: none; stroke-linecap: butt; stroke-dashoffset: 0; stroke-linejoin: miter; stroke-miterlimit: 4; fill: rgb(63,61,86); fill-rule: nonzero; opacity: 1;" vector-effect="non-scaling-stroke"  x="-39.35" y="-1.83" rx="0" ry="0" width="78.7" height="3.66" />
</g>
<g transform="matrix(0.93 0.36 -0.36 0.93 842 482.65)"  >
<rect style="stroke: none; stroke-width: 1; stroke-dasharray: none; stroke-linecap: butt; stroke-dashoffset: 0; stroke-linejoin: miter; stroke-miterlimit: 4; fill: rgb(63,61,86); fill-rule: nonzero; opacity: 1;" vector-effect="non-scaling-stroke"  x="-39.35" y="-1.83" rx="0" ry="0" width="78.7" height="3.66" />
</g>
<g transform="matrix(0.93 0.36 -0.36 0.93 836.79 496.33)"  >
<rect style="stroke: none; stroke-width: 1; stroke-dasharray: none; stroke-linecap: butt; stroke-dashoffset: 0; stroke-linejoin: miter; stroke-miterlimit: 4; fill: rgb(63,61,86); fill-rule: nonzero; opacity: 1;" vector-effect="non-scaling-stroke"  x="-39.35" y="-1.83" rx="0" ry="0" width="78.7" height="3.66" />
</g>
<g transform="matrix(0.93 0.36 -0.36 0.93 831.57 510.01)"  >
<rect style="stroke: none; stroke-width: 1; stroke-dasharray: none; stroke-linecap: butt; stroke-dashoffset: 0; stroke-linejoin: miter; stroke-miterlimit: 4; fill: rgb(63,61,86); fill-rule: nonzero; opacity: 1;" vector-effect="non-scaling-stroke"  x="-39.35" y="-1.83" rx="0" ry="0" width="78.7" height="3.66" />
</g>
<g transform="matrix(0.93 0.36 -0.36 0.93 826.36 523.68)"  >
<rect style="stroke: none; stroke-width: 1; stroke-dasharray: none; stroke-linecap: butt; stroke-dashoffset: 0; stroke-linejoin: miter; stroke-miterlimit: 4; fill: rgb(63,61,86); fill-rule: nonzero; opacity: 1;" vector-effect="non-scaling-stroke"  x="-39.35" y="-1.83" rx="0" ry="0" width="78.7" height="3.66" />
</g>
<g transform="matrix(0.93 0.36 -0.36 0.93 821.14 537.36)"  >
<rect style="stroke: none; stroke-width: 1; stroke-dasharray: none; stroke-linecap: butt; stroke-dashoffset: 0; stroke-linejoin: miter; stroke-miterlimit: 4; fill: rgb(63,61,86); fill-rule: nonzero; opacity: 1;" vector-effect="non-scaling-stroke"  x="-39.35" y="-1.83" rx="0" ry="0" width="78.7" height="3.66" />
</g>
<g transform="matrix(0.93 0.36 -0.36 0.93 815.93 551.05)"  >
<rect style="stroke: none; stroke-width: 1; stroke-dasharray: none; stroke-linecap: butt; stroke-dashoffset: 0; stroke-linejoin: miter; stroke-miterlimit: 4; fill: rgb(63,61,86); fill-rule: nonzero; opacity: 1;" vector-effect="non-scaling-stroke"  x="-39.35" y="-1.83" rx="0" ry="0" width="78.7" height="3.66" />
</g>
<g transform="matrix(1 0 0 1 821.38 540)"  >
<polygon style="stroke: rgb(255,255,255); stroke-width: 1; stroke-dasharray: none; stroke-linecap: butt; stroke-dashoffset: 0; stroke-linejoin: miter; stroke-miterlimit: 4; fill: rgb(63,61,86); fill-rule: nonzero; opacity: 1;" vector-effect="non-scaling-stroke"  points="75.82,87.42 -114.12,19.21 -75.82,-87.42 4.39,-12.22 114.12,-19.21 75.82,87.42 " />
</g>
<g transform="matrix(1 0 0 1 753.67 547.29)"  >
<polygon style="stroke: rgb(255,255,255); stroke-width: 1; stroke-dasharray: none; stroke-linecap: butt; stroke-dashoffset: 0; stroke-linejoin: miter; stroke-miterlimit: 4; fill: rgb(250,174,50); fill-rule: nonzero; opacity: 1;" vector-effect="non-scaling-stroke"  points="47.01,49.13 -47.69,15.12 -24.62,-49.13 -22.73,-48.46 -45.13,13.91 47.69,47.25 47.01,49.13 " />
</g>
<g transform="matrix(0.94 0.34 -0.34 0.94 751.15 528.69)"  >
<rect style="stroke: rgb(255,255,255); stroke-width: 1; stroke-dasharray: none; stroke-linecap: butt; stroke-dashoffset: 0; stroke-linejoin: miter; stroke-miterlimit: 4; fill: rgb(250,174,50); fill-rule: nonzero; opacity: 1;" vector-effect="non-scaling-stroke"  x="-14.755" y="-5.9" rx="0" ry="0" width="29.51" height="11.8" />
</g>
<g transform="matrix(1 0 0 1 379.31 800.23)"  >
<polygon style="stroke: rgb(255,255,255); stroke-width: 1; stroke-dasharray: none; stroke-linecap: butt; stroke-dashoffset: 0; stroke-linejoin: miter; stroke-miterlimit: 4; fill: rgb(63,61,86); fill-rule: nonzero; opacity: 1;" vector-effect="non-scaling-stroke"  points="73.74,41.77 -74.91,41.69 -73.74,-41.77 0.13,-8.56 74.91,-39.69 73.74,41.77 " />
</g>
<g transform="matrix(1 0.01 -0.01 1 327.05 808.33)"  >
<rect style="stroke: none; stroke-width: 1; stroke-dasharray: none; stroke-linecap: butt; stroke-dashoffset: 0; stroke-linejoin: miter; stroke-miterlimit: 4; fill: rgb(250,174,50); fill-rule: nonzero; opacity: 1;" vector-effect="non-scaling-stroke"  x="-10.87" y="-4.345" rx="0" ry="0" width="21.74" height="8.69" />
</g>
<g transform="matrix(1 0 0 1 379.95 778.48)"  >
<polygon style="stroke: none; stroke-width: 1; stroke-dasharray: none; stroke-linecap: butt; stroke-dashoffset: 0; stroke-linejoin: miter; stroke-miterlimit: 4; fill: rgb(250,174,50); fill-rule: nonzero; opacity: 1;" vector-effect="non-scaling-stroke"  points="74.77,-18.05 -0.37,20.26 -74.77,-18.05 -74.77,-20.26 74.77,-20.26 74.77,-18.05 " />
</g>
<g transform="matrix(0.36 -0.93 0.93 0.36 863.4 435.66)"  >
<ellipse style="stroke: rgb(255,255,255); stroke-width: 1; stroke-dasharray: none; stroke-linecap: butt; stroke-dashoffset: 0; stroke-linejoin: miter; stroke-miterlimit: 4; fill: rgb(250,174,50); fill-rule: nonzero; opacity: 1;" vector-effect="non-scaling-stroke"  cx="0" cy="0" rx="9.02966" ry="25" />
</g>
<g transform="matrix(1 0 0 1 896 360.79)"  >
<path style="stroke: rgb(255,255,255); stroke-width: 1; stroke-dasharray: none; stroke-linecap: butt; stroke-dashoffset: 0; stroke-linejoin: miter; stroke-miterlimit: 4; fill: rgb(250,174,50); fill-rule: nonzero; opacity: 1;" vector-effect="non-scaling-stroke"  transform=" translate(-956, -270.79)" d="M 967.10457 212.43884 C 957.4808515177883 209.4463977067396 947.0625523868148 210.3995256723912 938.1415798435966 215.08854659221043 C 929.2206073003783 219.77756751202963 922.5277210878572 227.81838114297497 919.53528 237.4421 C 913.3038399999999 257.48245000000003 930.2862799999999 330.84668 930.2862799999999 330.84668 C 930.2862799999999 330.84668 985.87637 280.04848 992.1077999999999 260.00813 C 998.339240942134 239.96778238151595 987.1449151620195 218.6702888421316 967.10457 212.43884 Z M 950.477 265.91335 C 940.9842002264054 262.9616171210224 935.6816177651285 252.87333019180483 938.6333505343583 243.3805303840848 C 941.5850833035881 233.88773057636476 951.6733701715017 228.58514799845554 961.1661700133471 231.53688065793753 C 970.6589698551926 234.4886133174195 975.9615525497342 244.57690012402904 973.00982 254.06969999999998 C 971.5923479981693 258.6283034020537 968.422033770644 262.43710969529207 964.1963102891573 264.65822493570636 C 959.9705868076704 266.8793401761206 955.0356033528908 267.330822159939 950.477 265.91335 Z" stroke-linecap="round" />
</g>
</svg>